<svg width="16" height="16" viewBox="0 0 16 16" fill="none" xmlns="http://www.w3.org/2000/svg" class="fill-current">
                          <path d="M8.0216 10.4947C9.39934 10.4947 10.5162 9.37786 10.5162 8.00012C10.5162 6.62237 9.39934 5.50549 8.0216 5.50549C6.64386 5.50549 5.52698 6.62237 5.52698 8.00012C5.52698 9.37786 6.64386 10.4947 8.0216 10.4947Z" fill=""></path>
                          <path d="M10.7312 1.33331H5.26883C3.09678 1.33331 1.33334 3.09675 1.33334 5.2688V10.6882C1.33334 12.9032 3.09678 14.6666 5.26883 14.6666H10.6882C12.9032 14.6666 14.6667 12.9032 14.6667 10.7312V5.2688C14.6667 3.09675 12.9032 1.33331 10.7312 1.33331ZM8.02152 11.2688C6.19356 11.2688 4.7527 9.78493 4.7527 7.99998C4.7527 6.21503 6.21506 4.73116 8.02152 4.73116C9.80646 4.73116 11.2688 6.21503 11.2688 7.99998C11.2688 9.78493 9.82797 11.2688 8.02152 11.2688ZM12.5376 5.03224C12.3226 5.2688 12 5.39783 11.6344 5.39783C11.3118 5.39783 10.9893 5.2688 10.7312 5.03224C10.4946 4.79568 10.3656 4.4946 10.3656 4.12901C10.3656 3.76342 10.4946 3.48385 10.7312 3.22579C10.9678 2.96772 11.2688 2.83869 11.6344 2.83869C11.957 2.83869 12.3011 2.96772 12.5376 3.20428C12.7527 3.48385 12.9032 3.80643 12.9032 4.15052C12.8817 4.4946 12.7527 4.79568 12.5376 5.03224Z" fill=""></path>
                          <path d="M11.6564 3.61273C11.3769 3.61273 11.1403 3.84929 11.1403 4.12886C11.1403 4.40843 11.3769 4.64499 11.6564 4.64499C11.936 4.64499 12.1726 4.40843 12.1726 4.12886C12.1726 3.84929 11.9575 3.61273 11.6564 3.61273Z" fill=""></path>
                        </svg>