<svg width="16" height="16" viewBox="0 0 16 16" fill="none" xmlns="http://www.w3.org/2000/svg" class="fill-current">
                          <path d="M14.6353 4.30004C14.7245 4.19615 14.6083 4.0604 14.4764 4.10903C14.1821 4.21757 13.9132 4.28916 13.5155 4.33335C14.0047 4.06095 14.2322 3.67161 14.4173 3.19475C14.4619 3.07973 14.3273 2.97535 14.2113 3.0303C13.7405 3.25356 13.2324 3.4192 12.6981 3.51707C12.1701 2.99371 11.4173 2.66669 10.5847 2.66669C8.98574 2.66669 7.68914 3.87253 7.68914 5.35947C7.68914 5.57056 7.71501 5.77618 7.76381 5.97305C5.46538 5.86597 3.41588 4.88275 1.992 3.37509C1.8944 3.27176 1.71732 3.28548 1.65655 3.41151C1.49444 3.74775 1.40407 4.12075 1.40407 4.51346C1.40407 5.44751 1.91508 6.27164 2.6919 6.75455C2.3436 6.74409 2.0105 6.67622 1.70354 6.56105C1.55409 6.50498 1.38277 6.60351 1.40285 6.75422C1.557 7.91149 2.49395 8.86622 3.70334 9.09182C3.46047 9.15362 3.20467 9.18642 2.94005 9.18642C2.87589 9.18642 2.81228 9.18442 2.74926 9.18055C2.58888 9.17062 2.45853 9.31409 2.52729 9.45135C2.98096 10.3568 3.96057 10.989 5.10054 11.0086C4.10968 11.731 2.86125 12.1614 1.50462 12.1614C1.33735 12.1614 1.26559 12.3765 1.41399 12.4494C2.56014 13.0128 3.86538 13.3334 5.25226 13.3334C10.5782 13.3334 13.4902 9.23022 13.4902 5.67173C13.4902 5.55525 13.4873 5.43876 13.482 5.32337C13.9143 5.03295 14.3029 4.68761 14.6353 4.30004Z" fill=""></path>
                        </svg>