<svg
                            className="w-5 h-5"
                            fill="none"
                            height="20"
                            viewBox="0 0 20 20"
                            xmlns="http://www.w3.org/2000/svg"
                          >
                            <g clipPath="url(#clip0_941_16343)" fill="none">
                              <path
                                d="M15.1875 19.4688C14.3437 19.4688 13.375 19.25 12.3125 18.8438C10.1875 18 7.84374 16.375 5.74999 14.2813C3.65624 12.1875 2.03124 9.84377 1.18749 7.68752C0.249989 5.37502 0.343739 3.46877 1.43749 2.40627C1.46874 2.37502 1.53124 2.34377 1.56249 2.31252L4.18749 0.750025C4.84374 0.375025 5.68749 0.562525 6.12499 1.18752L7.96874 3.93753C8.40624 4.59378 8.21874 5.46877 7.59374 5.90627L6.46874 6.68752C7.28124 8.00002 9.59374 11.2188 13.2812 13.5313L13.9687 12.5313C14.5 11.7813 15.3437 11.5625 16.0312 12.0313L18.7812 13.875C19.4062 14.3125 19.5937 15.1563 19.2187 15.8125L17.6562 18.4375C17.625 18.5 17.5937 18.5313 17.5625 18.5625C17 19.1563 16.1875 19.4688 15.1875 19.4688ZM2.37499 3.46878C1.78124 4.12503 1.81249 5.46877 2.49999 7.18752C3.28124 9.15627 4.78124 11.3125 6.74999 13.2813C8.68749 15.2188 10.875 16.7188 12.8125 17.5C14.5 18.1875 15.8437 18.2188 16.5312 17.625L18.0312 15.0625C18.0312 15.0313 18.0312 15.0313 18.0312 15L15.2812 13.1563C15.2812 13.1563 15.2187 13.1875 15.1562 13.2813L14.4687 14.2813C14.0312 14.9063 13.1875 15.0938 12.5625 14.6875C8.62499 12.25 6.18749 8.84377 5.31249 7.46877C4.90624 6.81252 5.06249 5.96878 5.68749 5.53128L6.81249 4.75002V4.71878L4.96874 1.96877C4.96874 1.93752 4.93749 1.93752 4.90624 1.96877L2.37499 3.46878Z"
                                fill="rgb(255, 255, 255)"
                              />

                              <path
                                d="M18.3125 8.90633C17.9375 8.90633 17.6562 8.62508 17.625 8.25008C17.375 5.09383 14.7812 2.56258 11.5937 2.34383C11.2187 2.31258 10.9062 2.00008 10.9375 1.59383C10.9687 1.21883 11.2812 0.906333 11.6875 0.937583C15.5625 1.18758 18.7187 4.25008 19.0312 8.12508C19.0625 8.50008 18.7812 8.84383 18.375 8.87508C18.375 8.90633 18.3437 8.90633 18.3125 8.90633Z"
                                fill="rgb(255, 255, 255)"
                              />

                              <path
                                d="M15.2187 9.18755C14.875 9.18755 14.5625 8.93755 14.5312 8.56255C14.3437 6.87505 13.0312 5.56255 11.3437 5.3438C10.9687 5.31255 10.6875 4.93755 10.7187 4.56255C10.75 4.18755 11.125 3.9063 11.5 3.93755C13.8437 4.2188 15.6562 6.0313 15.9375 8.37505C15.9687 8.75005 15.7187 9.0938 15.3125 9.1563C15.25 9.18755 15.2187 9.18755 15.2187 9.18755Z"
                                fill="rgb(255, 255, 255)"
                              />
                            </g>

                            <defs fill="none">
                              <clipPath fill="none" id="clip0_941_16343">
                                <rect
                                  className="w-5 h-5"
                                  fill="rgb(255, 255, 255)"
                                  height="20"
                                />
                              </clipPath>
                            </defs>
                          </svg>