<?xml version="1.0" ?><svg height="512" id="svg2" version="1.1" width="512" xmlns="http://www.w3.org/2000/svg" xmlns:cc="http://creativecommons.org/ns#" xmlns:dc="http://purl.org/dc/elements/1.1/" xmlns:inkscape="http://www.inkscape.org/namespaces/inkscape" xmlns:rdf="http://www.w3.org/1999/02/22-rdf-syntax-ns#" xmlns:sodipodi="http://sodipodi.sourceforge.net/DTD/sodipodi-0.dtd" xmlns:svg="http://www.w3.org/2000/svg"><defs id="defs4"/><g id="layer1" transform="translate(0,-540.36218)"><path d="m 81.922781,636.48476 c -8.0206,0 -14.4483,6.5378 -14.4483,14.5583 l 0,124.3128 c 0,8.0205 6.4277,14.4483 14.4483,14.4483 l 136.927499,0 c 8.0204,0 14.5215,-6.4278 14.5215,-14.4483 l 0,-124.3128 c 0,-8.0205 -6.5011,-14.5583 -14.5215,-14.5583 l -136.927499,0 z m 196.333699,0 c -8.0206,0 -14.4481,6.5378 -14.4481,14.5583 l 0,124.3128 c 0,8.0205 6.4275,14.4483 14.4481,14.4483 l 136.8915,0 c 8.0194,0 14.5204,-6.4278 14.5204,-14.4483 l 0,-124.3128 c 0,-8.0205 -6.501,-14.5583 -14.5204,-14.5583 l -136.8915,0 z M 81.922781,812.06306 c -8.0206,0 -14.4483,6.5378 -14.4483,14.5583 l 0,124.31293 c 0,8.0204 6.4277,14.4482 14.4483,14.4482 l 136.927499,0 c 8.0204,0 14.5215,-6.4278 14.5215,-14.4482 l 0,-124.31293 c 0,-8.0205 -6.5011,-14.5583 -14.5215,-14.5583 l -136.927499,0 z m 196.333699,0 c -8.0206,0 -14.4481,6.5378 -14.4481,14.5583 l 0,124.31293 c 0,8.0204 6.4275,14.4482 14.4481,14.4482 l 136.8915,0 c 8.0194,0 14.5204,-6.4278 14.5204,-14.4482 l 0,-124.31293 c 0,-8.0205 -6.501,-14.5583 -14.5204,-14.5583 l -136.8915,0 z" id="rect3044-174-4-7-5-0-4-2-4" style="fill:#000000;fill-opacity:1;stroke:none"/></g></svg>