<?xml version="1.0" ?><!DOCTYPE svg  PUBLIC '-//W3C//DTD SVG 1.1//EN'  'http://www.w3.org/Graphics/SVG/1.1/DTD/svg11.dtd'><svg height="8.4666mm" style="shape-rendering:geometricPrecision; text-rendering:geometricPrecision; image-rendering:optimizeQuality; fill-rule:evenodd; clip-rule:evenodd" version="1.1" viewBox="0 0 846.66 846.66" width="8.4666mm" xml:space="preserve" xmlns="http://www.w3.org/2000/svg" xmlns:xlink="http://www.w3.org/1999/xlink"><defs><style type="text/css">
   <![CDATA[
    .fil0 {fill:black;fill-rule:nonzero}
   ]]>
  </style></defs><g id="Layer_x0020_1"><path class="fil0" d="M313.28 9.6l220.1 0c11.43,0 20.69,9.27 20.69,20.69l0 77.41 54.74 -54.74c8.07,-8.08 21.17,-8.08 29.25,0l155.64 155.64c8.07,8.07 8.07,21.17 0,29.25l-54.74 54.74 77.41 0c11.42,0 20.69,9.26 20.69,20.68l0 220.11c0,11.42 -9.27,20.68 -20.69,20.68l-77.41 0 54.74 54.75c8.07,8.07 8.07,21.17 0,29.25l-155.64 155.63c-8.08,8.08 -21.18,8.08 -29.25,0l-54.74 -54.73 0 77.41c0,11.42 -9.26,20.69 -20.69,20.69l-220.1 0c-11.42,0 -20.69,-9.27 -20.69,-20.69l0 -77.42 -54.74 54.74c-8.07,8.08 -21.17,8.08 -29.25,0l-155.64 -155.63c-8.07,-8.08 -8.07,-21.18 0,-29.26l54.74 -54.74 -77.41 0c-11.42,0 -20.69,-9.26 -20.69,-20.68l0 -220.11c0,-11.42 9.27,-20.68 20.69,-20.68l77.41 0 -54.73 -54.74c-8.08,-8.08 -8.08,-21.18 0,-29.25l155.63 -155.64c8.08,-8.08 21.18,-8.08 29.25,0l54.74 54.74 0 -77.41c0,-11.42 9.27,-20.69 20.69,-20.69zm3.37 297.41c-27.21,0 -27.21,-41.37 0,-41.37l213.36 0c27.21,0 27.21,41.37 0,41.37l-213.36 0zm0 274.01c-27.21,0 -27.21,-41.37 0,-41.37l213.36 0c27.21,0 27.21,41.37 0,41.37l-213.36 0zm0 -137c-27.21,0 -27.21,-41.38 0,-41.38l213.36 0c27.21,0 27.21,41.38 0,41.38l-213.36 0zm196.05 -393.04l-178.74 0 0 106.66c0,18.18 -22.18,27.75 -35.31,14.63l-75.42 -75.43 -126.38 126.38 75.42 75.43c12.85,12.85 3.93,35.31 -14.63,35.31l-106.66 0 0 178.73 106.66 0c18.18,0.01 27.75,22.19 14.63,35.31l-75.43 75.43 126.39 126.38 75.42 -75.42c12.85,-12.86 35.31,-3.94 35.31,14.62l0 106.67 178.74 0 0 -106.66c0,-18.18 22.19,-27.75 35.31,-14.63l75.42 75.42 126.39 -126.38 -75.43 -75.43c-12.85,-12.85 -3.93,-35.31 14.63,-35.31l106.66 0 0 -178.73 -106.66 0c-18.18,0 -27.75,-22.19 -14.63,-35.31l75.43 -75.43 -126.39 -126.38 -75.42 75.43c-12.85,12.85 -35.31,3.93 -35.31,-14.63l0 -106.66z"/></g></svg>